<svg width="108" height="108" viewBox="0 0 108 108" fill="none" xmlns="http://www.w3.org/2000/svg">
<path d="M54 84C55.7 84 57.126 83.424 58.278 82.272C59.43 81.12 60.004 79.696 60 78C59.996 76.304 59.42 74.88 58.272 73.728C57.124 72.576 55.7 72 54 72C52.3 72 50.876 72.576 49.728 73.728C48.58 74.88 48.004 76.304 48 78C47.996 79.696 48.572 81.122 49.728 82.278C50.884 83.434 52.308 84.008 54 84ZM48 60H60V24H48V60ZM31.5 108L0 76.5V31.5L31.5 0H76.5L108 31.5V76.5L76.5 108H31.5Z" fill="black"/>
</svg>
