<svg width="116" height="116" viewBox="0 0 116 116" fill="none" xmlns="http://www.w3.org/2000/svg">
<g filter="url(#filter0_dd_349_360)">
<rect x="4" width="108" height="108" rx="54" fill="white" shape-rendering="crispEdges"/>
<rect x="4.5" y="0.5" width="107" height="107" rx="53.5" stroke="black" shape-rendering="crispEdges"/>
<path d="M82.9008 83.0248V76.5748C82.9008 73.1535 81.5417 69.8723 79.1225 67.4531C76.7032 65.0339 73.4221 63.6748 70.0008 63.6748H44.2008C40.7795 63.6748 37.4983 65.0339 35.0791 67.4531C32.6599 69.8723 31.3008 73.1535 31.3008 76.5748V83.0248" stroke="#F18660" stroke-width="3.6" stroke-linecap="round" stroke-linejoin="round"/>
<path d="M57.1002 50.7746C64.2247 50.7746 70.0002 44.9991 70.0002 37.8746C70.0002 30.7501 64.2247 24.9746 57.1002 24.9746C49.9757 24.9746 44.2002 30.7501 44.2002 37.8746C44.2002 44.9991 49.9757 50.7746 57.1002 50.7746Z" stroke="#F18660" stroke-width="3.6" stroke-linecap="round" stroke-linejoin="round"/>
</g>
<defs>
<filter id="filter0_dd_349_360" x="0" y="0" width="116" height="116" filterUnits="userSpaceOnUse" color-interpolation-filters="sRGB">
<feFlood flood-opacity="0" result="BackgroundImageFix"/>
<feColorMatrix in="SourceAlpha" type="matrix" values="0 0 0 0 0 0 0 0 0 0 0 0 0 0 0 0 0 0 127 0" result="hardAlpha"/>
<feOffset dy="4"/>
<feGaussianBlur stdDeviation="2"/>
<feComposite in2="hardAlpha" operator="out"/>
<feColorMatrix type="matrix" values="0 0 0 0 0 0 0 0 0 0 0 0 0 0 0 0 0 0 0.25 0"/>
<feBlend mode="normal" in2="BackgroundImageFix" result="effect1_dropShadow_349_360"/>
<feColorMatrix in="SourceAlpha" type="matrix" values="0 0 0 0 0 0 0 0 0 0 0 0 0 0 0 0 0 0 127 0" result="hardAlpha"/>
<feOffset dy="4"/>
<feGaussianBlur stdDeviation="2"/>
<feComposite in2="hardAlpha" operator="out"/>
<feColorMatrix type="matrix" values="0 0 0 0 0 0 0 0 0 0 0 0 0 0 0 0 0 0 0.25 0"/>
<feBlend mode="normal" in2="effect1_dropShadow_349_360" result="effect2_dropShadow_349_360"/>
<feBlend mode="normal" in="SourceGraphic" in2="effect2_dropShadow_349_360" result="shape"/>
</filter>
</defs>
</svg>
