<svg width="106" height="108" viewBox="0 0 106 108" fill="none" xmlns="http://www.w3.org/2000/svg">
<path d="M52.5384 72.9C47.5258 72.9 42.7185 70.9088 39.1741 67.3643C35.6296 63.8199 33.6384 59.0126 33.6384 54C33.6384 48.9874 35.6296 44.1801 39.1741 40.6357C42.7185 37.0913 47.5258 35.1 52.5384 35.1C57.551 35.1 62.3583 37.0913 65.9027 40.6357C69.4472 44.1801 71.4384 48.9874 71.4384 54C71.4384 59.0126 69.4472 63.8199 65.9027 67.3643C62.3583 70.9088 57.551 72.9 52.5384 72.9ZM92.6604 59.238C92.8764 57.51 93.0384 55.782 93.0384 54C93.0384 52.218 92.8764 50.436 92.6604 48.6L104.054 39.798C105.08 38.988 105.35 37.53 104.702 36.342L93.9024 17.658C93.2544 16.47 91.7964 15.984 90.6084 16.47L77.1624 21.87C74.3544 19.764 71.4384 17.928 68.0364 16.578L66.0384 2.26801C65.9287 1.63198 65.5974 1.05532 65.1032 0.640188C64.609 0.22506 63.9838 -0.00172678 63.3384 9.90073e-06H41.7384C40.3884 9.90073e-06 39.2544 0.97201 39.0384 2.26801L37.0404 16.578C33.6384 17.928 30.7224 19.764 27.9144 21.87L14.4684 16.47C13.2804 15.984 11.8224 16.47 11.1744 17.658L0.37439 36.342C-0.32761 37.53 -0.00360883 38.988 1.02239 39.798L12.4164 48.6C12.2004 50.436 12.0384 52.218 12.0384 54C12.0384 55.782 12.2004 57.51 12.4164 59.238L1.02239 68.202C-0.00360883 69.012 -0.32761 70.47 0.37439 71.658L11.1744 90.342C11.8224 91.53 13.2804 91.962 14.4684 91.53L27.9144 86.076C30.7224 88.236 33.6384 90.072 37.0404 91.422L39.0384 105.732C39.2544 107.028 40.3884 108 41.7384 108H63.3384C64.6884 108 65.8224 107.028 66.0384 105.732L68.0364 91.422C71.4384 90.018 74.3544 88.236 77.1624 86.076L90.6084 91.53C91.7964 91.962 93.2544 91.53 93.9024 90.342L104.702 71.658C105.35 70.47 105.08 69.012 104.054 68.202L92.6604 59.238Z" fill="black"/>
</svg>
